# xmcd
#
# Track frame offsets: 
#        150
#        18936
#        31370
#        43866
#        54458
#        75535
#        86534
#        104994
#        119891
#        134798
#        150305
#        169709
#        180898
#
# Disc length: 2523 seconds
#
# Revision: 2
# Processed by: cddbd v1.5.2PL0 Copyright (c) Steve Scherf et al.
# Submitted via: ExactAudioCopy v0.99pb5
#
DISCID=a909d90d
DTITLE=Mina Agossi - Just Like a Lady
DYEAR=2010
DGENRE=Jazz
TTITLE0=There's a Lull in My Life
TTITLE1=Stoppin' the Clock
TTITLE2=J'aimerais Tant
TTITLE3=Just Like a Lady
TTITLE4=Waters on March
TTITLE5=I Really Wonder
TTITLE6=And I Love Her
TTITLE7=Lost in the City
TTITLE8=Burning of the Midnight Lamp
TTITLE9=When the Saints Go Marching In
TTITLE10=J'ai Fantaisie
TTITLE11=Postcard
TTITLE12=Rope a Dope
EXTD=YEAR: 2010
EXTT0=
EXTT1=
EXTT2=
EXTT3=
EXTT4=
EXTT5=
EXTT6=
EXTT7=
EXTT8=
EXTT9=
EXTT10=
EXTT11=
EXTT12=
PLAYORDER=
